<svg xmlns="http://www.w3.org/2000/svg" version="1.1" xmlns:xlink="http://www.w3.org/1999/xlink" xmlns:svgjs="http://svgjs.com/svgjs" width="1440" height="560" preserveAspectRatio="none" viewBox="0 0 1440 560"><g mask="url(&quot;#SvgjsMask1000&quot;)" fill="none"><rect width="1440" height="560" x="0" y="0" fill="#0e2a47"></rect><path d="M1078 405L1077 580" stroke-width="10" stroke="url(#SvgjsLinearGradient1001)" stroke-linecap="round" class="Down"></path><path d="M364 190L363 398" stroke-width="10" stroke="url(#SvgjsLinearGradient1001)" stroke-linecap="round" class="Down"></path><path d="M1145 161L1144 406" stroke-width="6" stroke="url(#SvgjsLinearGradient1001)" stroke-linecap="round" class="Down"></path><path d="M1272 108L1271 -63" stroke-width="10" stroke="url(#SvgjsLinearGradient1002)" stroke-linecap="round" class="Up"></path><path d="M521 190L520 -152" stroke-width="10" stroke="url(#SvgjsLinearGradient1002)" stroke-linecap="round" class="Up"></path><path d="M624 141L623 385" stroke-width="8" stroke="url(#SvgjsLinearGradient1002)" stroke-linecap="round" class="Up"></path><path d="M694 248L693 -38" stroke-width="10" stroke="url(#SvgjsLinearGradient1002)" stroke-linecap="round" class="Up"></path><path d="M174 184L173 -13" stroke-width="8" stroke="url(#SvgjsLinearGradient1001)" stroke-linecap="round" class="Down"></path><path d="M93 380L92 548" stroke-width="6" stroke="url(#SvgjsLinearGradient1002)" stroke-linecap="round" class="Up"></path><path d="M351 66L350 -215" stroke-width="8" stroke="url(#SvgjsLinearGradient1001)" stroke-linecap="round" class="Down"></path><path d="M1075 373L1074 518" stroke-width="6" stroke="url(#SvgjsLinearGradient1001)" stroke-linecap="round" class="Down"></path><path d="M868 59L867 -346" stroke-width="10" stroke="url(#SvgjsLinearGradient1002)" stroke-linecap="round" class="Up"></path><path d="M1179 417L1178 6" stroke-width="8" stroke="url(#SvgjsLinearGradient1001)" stroke-linecap="round" class="Down"></path><path d="M701 31L700 382" stroke-width="6" stroke="url(#SvgjsLinearGradient1001)" stroke-linecap="round" class="Down"></path><path d="M184 257L183 -52" stroke-width="8" stroke="url(#SvgjsLinearGradient1002)" stroke-linecap="round" class="Up"></path><path d="M864 253L863 571" stroke-width="6" stroke="url(#SvgjsLinearGradient1002)" stroke-linecap="round" class="Up"></path><path d="M63 508L62 697" stroke-width="10" stroke="url(#SvgjsLinearGradient1001)" stroke-linecap="round" class="Down"></path><path d="M1416 358L1415 34" stroke-width="10" stroke="url(#SvgjsLinearGradient1001)" stroke-linecap="round" class="Down"></path><path d="M295 480L294 678" stroke-width="10" stroke="url(#SvgjsLinearGradient1001)" stroke-linecap="round" class="Down"></path><path d="M910 272L909 100" stroke-width="10" stroke="url(#SvgjsLinearGradient1001)" stroke-linecap="round" class="Down"></path><path d="M46 322L45 139" stroke-width="10" stroke="url(#SvgjsLinearGradient1001)" stroke-linecap="round" class="Down"></path><path d="M573 204L572 -94" stroke-width="10" stroke="url(#SvgjsLinearGradient1002)" stroke-linecap="round" class="Up"></path><path d="M697 78L696 -217" stroke-width="10" stroke="url(#SvgjsLinearGradient1001)" stroke-linecap="round" class="Down"></path><path d="M729 330L728 163" stroke-width="6" stroke="url(#SvgjsLinearGradient1001)" stroke-linecap="round" class="Down"></path><path d="M653 406L652 167" stroke-width="6" stroke="url(#SvgjsLinearGradient1001)" stroke-linecap="round" class="Down"></path><path d="M640 38L639 259" stroke-width="6" stroke="url(#SvgjsLinearGradient1002)" stroke-linecap="round" class="Up"></path><path d="M784 168L783 409" stroke-width="8" stroke="url(#SvgjsLinearGradient1001)" stroke-linecap="round" class="Down"></path><path d="M1316 183L1315 515" stroke-width="10" stroke="url(#SvgjsLinearGradient1001)" stroke-linecap="round" class="Down"></path><path d="M41 21L40 -148" stroke-width="10" stroke="url(#SvgjsLinearGradient1002)" stroke-linecap="round" class="Up"></path><path d="M213 461L212 129" stroke-width="6" stroke="url(#SvgjsLinearGradient1002)" stroke-linecap="round" class="Up"></path><path d="M993 177L992 586" stroke-width="6" stroke="url(#SvgjsLinearGradient1001)" stroke-linecap="round" class="Down"></path><path d="M58 271L57 48" stroke-width="6" stroke="url(#SvgjsLinearGradient1001)" stroke-linecap="round" class="Down"></path><path d="M246 47L245 268" stroke-width="6" stroke="url(#SvgjsLinearGradient1001)" stroke-linecap="round" class="Down"></path><path d="M643 332L642 695" stroke-width="8" stroke="url(#SvgjsLinearGradient1002)" stroke-linecap="round" class="Up"></path><path d="M950 187L949 -190" stroke-width="10" stroke="url(#SvgjsLinearGradient1001)" stroke-linecap="round" class="Down"></path><path d="M471 295L470 487" stroke-width="6" stroke="url(#SvgjsLinearGradient1001)" stroke-linecap="round" class="Down"></path></g><defs><mask id="SvgjsMask1000"><rect width="1440" height="560" fill="#ffffff"></rect></mask><linearGradient x1="0%" y1="0%" x2="0%" y2="100%" id="SvgjsLinearGradient1001"><stop stop-color="rgba(28, 83, 142, 0)" offset="0"></stop><stop stop-color="#1c538e" offset="1"></stop></linearGradient><linearGradient x1="0%" y1="100%" x2="0%" y2="0%" id="SvgjsLinearGradient1002"><stop stop-color="rgba(28, 83, 142, 0)" offset="0"></stop><stop stop-color="#1c538e" offset="1"></stop></linearGradient></defs></svg>